<?xml version="1.0" encoding="UTF-8"?>
<!DOCTYPE svg PUBLIC "-//W3C//DTD SVG 1.1//EN" "http://www.w3.org/Graphics/SVG/1.1/DTD/svg11.dtd">
<!-- Creator: CorelDRAW -->
<svg xmlns="http://www.w3.org/2000/svg" xml:space="preserve" width="61.9424mm" height="61.9424mm" style="shape-rendering:geometricPrecision; text-rendering:geometricPrecision; image-rendering:optimizeQuality; fill-rule:evenodd; clip-rule:evenodd"
viewBox="0 0 61.9424 61.9424"
 xmlns:xlink="http://www.w3.org/1999/xlink">
 <defs>
  <style type="text/css">
   <![CDATA[
    .fil0 {fill:#DA251D}
    .fil1 {fill:white}
   ]]>
  </style>
 </defs>
 <g id="Ebene_x0020_1">
  <metadata id="CorelCorpID_0Corel-Layer"/>
  <circle class="fil0" cx="30.9712" cy="30.9712" r="30.9712"/>
  <path class="fil1" d="M17.1805 20.1265c0.0432,-2.179 0.0568,-5.6966 -0.2676,-6.7683 1.3283,-0.9172 2.8415,-1.5071 2.8415,-1.5071l2.777 3.426c-0.1314,0.5144 -0.2375,1.035 -0.3203,1.5573 -1.3238,0.6044 -2.5966,1.3848 -3.8613,2.3524 -0.3923,0.3001 -0.7841,0.6126 -1.1693,0.9397zm23.3314 34.961c0,0 8.1142,0.2589 8.3731,-9.7543 0.259,-10.0132 -3.4248,-17.4412 -5.8765,-21.7675 -0.2884,-0.5091 -0.6105,-1.0003 -0.9612,-1.4714 0.0568,0.0762 0.1128,0.153 0.1681,0.2303 -0.1624,0.3134 -0.3514,0.6242 -0.5714,0.9327 -0.6472,0.9081 -1.4369,1.1123 -2.242,0.9307 -0.0457,1.0302 0.0774,1.7975 0.0781,1.8022l0.0626 0.405 -0.9394 -0.2699c-0.0042,-0.026 -0.1845,-1.1751 -0.033,-2.604l0.0015 -0.0144 0.0016 -0.0144 0.0098 -0.0869 0.0018 -0.0145 0.0017 -0.0146 0.0018 -0.0146c0.0035,-0.0292 0.0073,-0.0584 0.0111,-0.0878l0.0019 -0.0147 0.002 -0.0147 0.002 -0.0147 0.0103 -0.0739 0.0021 -0.0148 0.0022 -0.0148c0.0058,-0.0396 0.0118,-0.0793 0.0182,-0.1191l0.0024 -0.015 0.0024 -0.0149c0.1781,-1.0947 0.5707,-2.2842 1.3817,-3.2318 0.5927,-0.6926 1.4162,-1.3116 2.2882,-1.8422l0.0414 -0.0252 0.0802 -0.048 0.0404 -0.024c0.0418,-0.0248 0.0837,-0.0493 0.1256,-0.0737l0.0542 -0.0313 0.0805 -0.046 0.0371 -0.0211 0.0802 -0.0451 0.0036 -0.0021c0.0347,-0.0193 0.0693,-0.0385 0.104,-0.0575l0.071 -0.0388 0.0481 -0.026 0.0726 -0.039 0.0505 -0.0269c0.085,-0.0451 0.1699,-0.0894 0.2546,-0.1328l0.0427 -0.0218 0.0804 -0.0409 0.0156 -0.0077c0.0565,-0.0285 0.1128,-0.0565 0.169,-0.0842l0.0299 -0.0147 0.082 -0.04 0.0347 -0.0168c0.127,-0.0614 0.2528,-0.1207 0.3766,-0.1778l0.0164 -0.0076c0.0605,-0.0278 0.1205,-0.0552 0.1801,-0.082l0.0035 -0.0016 0.0791 -0.0355 0.0417 -0.0186 0.0709 -0.0313 0.0946 -0.0415 0.0004 -0.0001 0.0617 -0.0267 0.0466 -0.0202 0.0674 -0.0289 0.0304 -0.0129c0.0516,-0.0219 0.1025,-0.0435 0.1528,-0.0645l0.0086 -0.0036 0.0843 -0.035 0.0061 -0.0024 0.0829 -0.0341 0.0034 -0.0015c0.0479,-0.0196 0.095,-0.0386 0.1414,-0.0573l0.0389 -0.0156 0.0557 -0.0222 0.0329 -0.0131 0.0596 -0.0236 0.0785 -0.0307 0.066 -0.0256 0.0186 -0.0072c0.0968,-0.0374 0.1888,-0.0722 0.2755,-0.1045l0.0088 -0.0033 0.061 -0.0227 0.0642 -0.0236 0.0117 -0.0043 0.0501 -0.0183 0.0101 -0.0036 0.1064 -0.0383 0.0545 -0.0194 0.0185 -0.0066 0.0335 -0.0118 0.0366 -0.0128 0.0127 -0.0045 0.0466 -0.0162 0.0056 -0.0019 0.0382 -0.0132 0.0214 -0.0073 0.0196 -0.0067 0.0343 -0.0117 0.0038 -0.0013 0.0351 -0.0118 0.0095 -0.0032 0.0225 -0.0075 0.0199 -0.0066 0.0091 -0.0031 0.0259 -0.0085 0.0014 -0.0005 0.0211 -0.0069 0.0091 -0.003 0.0102 -0.0033 0.0136 -0.0044 0.0023 -0.0007 0.0126 -0.004 0.0023 -0.0008 0.0067 -0.0021 0.0037 -0.0012 0.0017 -0.0005 0.0018 -0.0006c0,0 0.0008,-4.8058 -1.4172,-4.4521 -0.0207,0.0051 -0.0423,0.0107 -0.0645,0.0166l-0.0048 0.0012 -0.0048 0.0013 -0.0597 0.0162 -0.0101 0.0028 -0.0096 0.0027 -0.0662 0.0189 -0.01 0.0029 -0.0792 0.0234 -0.0004 0.0002c-0.0846,0.0254 -0.1765,0.0543 -0.2747,0.0862l-0.0103 0.0034 -0.0006 0.0002 -0.0102 0.0033 -0.0824 0.0272 -0.005 0.0016 -0.0063 0.0021 -0.0111 0.0038 -0.084 0.0282 -0.0139 0.0047 -0.0135 0.0046 -0.0779 0.0266 -0.0221 0.0076 -0.032 0.0112 -0.0782 0.0272 -0.0134 0.0047 -0.076 0.0269 -0.0398 0.0141 -0.0178 0.0064 -0.0975 0.035 -0.0104 0.0037 -0.01 0.0037 -0.1147 0.0417 -0.0049 0.0018 -0.0016 0.0006 -0.1245 0.0458 -0.0071 0.0027 -0.0059 0.0022 -0.1145 0.0427 -0.0165 0.0062 -0.0093 0.0035 -0.1266 0.0478 -0.0114 0.0043 -0.1281 0.0489 -0.0085 0.0032 -0.0315 0.0122 -0.0898 0.0346 -0.0479 0.0186 -0.0698 0.0272 -0.0576 0.0225 -0.0129 0.005 -0.1117 0.044 -0.0282 0.0111 -0.0029 0.0012 -0.0723 0.0287 -0.0729 0.0291 -0.0073 0.0029 -0.0008 0.0003 -0.1223 0.0491 -0.0701 0.0283 -0.0217 0.0087 -0.0751 0.0305 -0.0576 0.0235 -0.0181 0.0074 -0.0762 0.0311 -0.04 0.0164 -0.0126 0.0052 -0.147 0.0608 -0.0057 0.0023 -0.0262 0.0109 -0.078 0.0325 -0.0246 0.0102 -0.0748 0.0314 -0.0991 0.0417 -0.0341 0.0143 -0.0043 0.0018 -0.0798 0.0338 -0.0801 0.0341 -0.007 0.0029 -0.0735 0.0314 -0.0809 0.0347c-1.973,0.8476 -4.2547,1.9564 -5.9638,3.0646 -0.0486,0.0315 -0.0973,0.064 -0.1458,0.0971l-0.0086 0.0059c-0.0455,0.0312 -0.0909,0.063 -0.1363,0.0955l-0.0164 0.0118c-0.0437,0.0314 -0.0872,0.0634 -0.1307,0.096l-0.0187 0.0141c-0.0407,0.0307 -0.0813,0.062 -0.1219,0.0936l-0.0351 0.0275c-0.0345,0.0273 -0.0691,0.055 -0.1035,0.0829l-0.0593 0.0485c-0.0248,0.0204 -0.0495,0.0411 -0.0742,0.0618 -0.0264,0.0221 -0.0527,0.0444 -0.079,0.0669l-0.0559 0.0483 -0.0167 0.0145 -0.0665 0.0584 -0.0166 0.0147c-2.7381,2.4331 -5.0116,6.7719 -5.0298,6.8066l-0.8694 -0.2497 0.0856 -0.1628c0.0073,-0.0139 2.1247,-4.065 4.8168,-6.6718 -0.8271,-0.1958 -1.6644,-0.3081 -2.4982,-0.3275 -0.1344,0.433 -0.1907,0.9336 -0.177,1.4678 0.0075,0.2913 -0.0215,0.144 0.0281,0.4529 -0.1137,0.1171 -0.6328,0.8307 -0.9534,1.5881l-0.0009 0.0019c0.1307,-0.3737 0.1854,-0.7132 0.1392,-1.0012 -0.4013,-2.499 0.3874,-4.8477 2.932,-4.9128 1.1573,-0.0296 1.8621,0.5324 2.2826,1.3317 1.3604,-0.8657 3.0389,-1.7243 4.642,-2.4593 0.4414,-0.2024 0.878,-0.3957 1.3016,-0.5775 -1.2739,-2.6054 -4.0393,-5.209 -8.3521,-5.1504 -4.3148,0.0585 -7.1248,2.2904 -8.9646,6.8713 -0.4976,1.2391 -0.808,2.5617 -0.9683,3.8844l-0.0526 0.0234 0.0526 -0.0234c-0.4324,3.5672 0.2282,7.1345 1.2631,9.0628l-0.6818 0.6018 -0.0979 -0.1825c-0.8293,-1.5452 -1.4349,-4.0409 -1.4968,-6.7609 -0.0169,-0.7427 0.0064,-1.5044 0.0763,-2.2704 -1.0173,0.5271 -2.009,1.1656 -2.9965,1.9211 -3.5818,2.7404 -7.1113,6.5107 -5.6987,13.053 1.4125,6.5422 4.9757,11.1253 10.4066,13.6443 5.4308,2.519 12.8663,8.2658 16.742,8.4081zm-1.0286 -31.7929c0.5405,0.1273 1.0462,0.0022 1.4399,-0.5501 0.2817,-0.3952 0.5066,-0.7985 0.6851,-1.2111 0.0572,0.0694 0.1136,0.1395 0.1695,0.2099 -0.0559,-0.0704 -0.1124,-0.1405 -0.1695,-0.2099 0.3454,-0.7984 0.5167,-1.6319 0.5875,-2.5096 -0.5743,0.3935 -1.0971,0.8279 -1.4987,1.2972 -0.7353,0.8591 -1.0722,1.9662 -1.2138,2.9736zm6.0315 -11.9286c-0.0208,0.0051 -0.0422,0.0107 -0.0645,0.0166m-19.2501 13.3723l0 0 -0.0006 0.0007 0.0006 -0.0007zm15.843 -2.6663c-0.0855,-0.1146 -0.1726,-0.228 -0.2614,-0.3402 0.0888,0.1122 0.1759,0.2256 0.2614,0.3402zm-19.1033 -4.4536c-0.1228,0.0551 -0.2451,0.1118 -0.3671,0.17 0.122,-0.0582 0.2443,-0.1149 0.3671,-0.17zm-0.3918 0.1819c-0.1191,0.057 -0.2378,0.1157 -0.3561,0.1757 0.1183,-0.0601 0.237,-0.1186 0.3561,-0.1757zm-0.3682 0.1817c-0.0392,0.02 -0.0784,0.0401 -0.1175,0.0604 0.0392,-0.0203 0.0784,-0.0404 0.1175,-0.0604z"/>
 </g>
</svg>
