<?xml version="1.0" encoding="UTF-8"?>
<!DOCTYPE svg PUBLIC "-//W3C//DTD SVG 1.1//EN" "http://www.w3.org/Graphics/SVG/1.1/DTD/svg11.dtd">
<!-- Creator: CorelDRAW -->
<svg xmlns="http://www.w3.org/2000/svg" xml:space="preserve" width="61.9424mm" height="61.9424mm" style="shape-rendering:geometricPrecision; text-rendering:geometricPrecision; image-rendering:optimizeQuality; fill-rule:evenodd; clip-rule:evenodd"
viewBox="0 0 61.9424 61.9424"
 xmlns:xlink="http://www.w3.org/1999/xlink">
 <defs>
  <style type="text/css">
   <![CDATA[
    .fil1 {fill:white}
    .fil0 {fill:#D17B2B}
   ]]>
  </style>
 </defs>
 <g id="Ebene_x0020_1">
  <metadata id="CorelCorpID_0Corel-Layer"/>
  <g id="_238351632">
   <circle id="_115409656" class="fil0" cx="30.9712" cy="30.9712" r="30.9712"/>
   <g>
    <path id="_238430904" class="fil1" d="M20.4794 12.4686c-2.027,-0.9304 -5.371,-0.7533 -7.6211,0.7815 -2.2501,1.5348 -3.2166,4.1881 -3.2063,6.6391 -1.8393,2.1985 -3.1152,5.8045 -3.0873,8.9067 0,3.1441 0.8819,6.4925 3.1649,8.9457 0.1891,2.2601 0.8786,5.0655 3.1287,6.6003 2.2501,1.5348 5.5941,1.7119 7.6211,0.7815 2.1802,-0.6675 4.4674,-3.3268 3.8445,-6.7084 -0.6058,-3.2886 -3.6244,-5.9683 -3.6244,-9.619 0,-3.6507 2.9678,-6.0542 3.6244,-9.6191 0.6229,-3.3816 -1.6643,-6.0409 -3.8445,-6.7083z"/>
    <path id="_115109272" class="fil1" d="M21.3555 28.49c1.4473,0.7327 3.9731,2.3804 4.6002,5.1777 0.9682,4.3189 1.0657,16.568 1.0077,18.4735l0 0.0001c0,0.1275 -0.5351,0.2309 -1.1952,0.2309 -0.6599,0 -1.1951,-0.1034 -1.1951,-0.2309l0 -0.0001 -0.1425 -9.7979c0.5631,-1.1907 0.8136,-2.6085 0.528,-4.1594 -0.2898,-1.5734 -1.0451,-2.9503 -1.8088,-4.3428 -0.8928,-1.6278 -1.799,-3.2798 -1.799,-5.1231 0,-0.0765 0.0017,-0.1525 0.0047,-0.228z"/>
    <path id="_115409344" class="fil1" d="M41.463 12.4686c2.027,-0.9304 5.371,-0.7533 7.6211,0.7815 2.2501,1.5348 3.2166,4.1881 3.2063,6.6391 1.8393,2.1985 3.1152,5.8045 3.0873,8.9067 0,3.1441 -0.8819,6.4925 -3.1649,8.9457 -0.1891,2.2601 -0.8786,5.0655 -3.1287,6.6003 -2.2501,1.5348 -5.5941,1.7119 -7.6211,0.7815 -2.1802,-0.6675 -4.4674,-3.3268 -3.8445,-6.7084 0.6058,-3.2886 3.6244,-5.9683 3.6244,-9.619 0,-3.6507 -2.9678,-6.0542 -3.6244,-9.6191 -0.6229,-3.3816 1.6643,-6.0409 3.8445,-6.7083z"/>
    <path id="_115408408" class="fil1" d="M40.5869 28.49c-1.4473,0.7327 -3.9731,2.3804 -4.6002,5.1777 -0.9682,4.3189 -1.0657,16.568 -1.0077,18.4735l0 0.0001c0,0.1275 0.5351,0.2309 1.1952,0.2309 0.6599,0 1.1951,-0.1034 1.1951,-0.2309l0 -0.0001 0.1425 -9.7979c-0.5631,-1.1907 -0.8136,-2.6085 -0.528,-4.1594 0.2898,-1.5734 1.0451,-2.9503 1.8088,-4.3428 0.8928,-1.6278 1.799,-3.2798 1.799,-5.1231 0,-0.0765 -0.0017,-0.1525 -0.0047,-0.228z"/>
   </g>
  </g>
 </g>
</svg>
