<?xml version="1.0" encoding="UTF-8"?>
<!DOCTYPE svg PUBLIC "-//W3C//DTD SVG 1.1//EN" "http://www.w3.org/Graphics/SVG/1.1/DTD/svg11.dtd">
<!-- Creator: CorelDRAW -->
<svg xmlns="http://www.w3.org/2000/svg" xml:space="preserve" width="61.9424mm" height="61.9424mm" style="shape-rendering:geometricPrecision; text-rendering:geometricPrecision; image-rendering:optimizeQuality; fill-rule:evenodd; clip-rule:evenodd"
viewBox="0 0 61.9424 61.9424"
 xmlns:xlink="http://www.w3.org/1999/xlink">
 <defs>
  <style type="text/css">
   <![CDATA[
    .fil1 {fill:white}
    .fil0 {fill:#693E50}
   ]]>
  </style>
 </defs>
 <g id="Ebene_x0020_1">
  <metadata id="CorelCorpID_0Corel-Layer"/>
  <g id="_240692384">
   <circle id="_239464320" class="fil0" cx="30.9712" cy="30.9712" r="30.9712"/>
   <path id="_239463096" class="fil1" d="M34.1917 18.6308c1.9959,0 6.2858,-1.0954 8.5261,-1.114 2.2404,-0.0186 3.9208,0.0869 8.1981,0.0312 4.2773,-0.0557 0.4506,6.3334 -2.179,9.6892 -2.6296,3.3558 -4.8553,7.943 -11.3049,7.9786 -1.2483,0.0148 -1.2947,-0.4872 -3.3005,-0.4648 -4.0227,0.0449 -6.6307,1.7139 -12.4958,5.0368 -3.9584,2.2425 -12.3049,8.1698 -12.3049,5.1079 0,-3.0618 -0.2231,-10.3497 -0.2231,-10.3497 0,-7.3955 2.7379,-11.5058 6.1475,-13.736 2.6314,-1.7212 5.389,-3.2351 10.2499,-3.2568 2.9798,-0.0132 6.7818,1.0776 8.6866,1.0776z"/>
  </g>
 </g>
</svg>
