<?xml version="1.0" encoding="UTF-8"?>
<!DOCTYPE svg PUBLIC "-//W3C//DTD SVG 1.1//EN" "http://www.w3.org/Graphics/SVG/1.1/DTD/svg11.dtd">
<!-- Creator: CorelDRAW -->
<svg xmlns="http://www.w3.org/2000/svg" xml:space="preserve" width="61.9424mm" height="61.9424mm" style="shape-rendering:geometricPrecision; text-rendering:geometricPrecision; image-rendering:optimizeQuality; fill-rule:evenodd; clip-rule:evenodd"
viewBox="0 0 61.9424 61.9424"
 xmlns:xlink="http://www.w3.org/1999/xlink">
 <defs>
  <style type="text/css">
   <![CDATA[
    .fil0 {fill:#007CC3}
    .fil1 {fill:white}
   ]]>
  </style>
 </defs>
 <g id="Ebene_x0020_1">
  <metadata id="CorelCorpID_0Corel-Layer"/>
  <g id="_240879768">
   <circle id="_238351344" class="fil0" cx="30.9712" cy="30.9712" r="30.9712"/>
   <path id="_238353816" class="fil1" d="M30.9712 16.2409l-0.0586 0 -0.0146 0c0,0 -2.3879,3.3174 -3.7592,5.2556l0.0014 0.0011 -0.0293 0.0382 -0.0001 0.0002 -0.0268 0.0353 -0.8101 1.0616c0.495,0.1936 0.9672,0.0974 1.4874,-0.6111l0.0194 -0.0291c0.2318,-0.3444 0.5048,-0.739 0.7962,-1.1541 0.1247,1.306 0.1977,1.2844 0.1993,3.698 0.0015,2.4134 0.0378,10.3614 -0.1717,14.6065 -0.2094,4.245 -1.0691,1.8644 -7.8911,3.9032 -6.822,2.0387 -6.1598,2.7684 -9.1547,3.3532 -2.9947,0.5847 -3.556,-0.4894 -3.556,-4.0219 0,-7.0292 7.61,-31.8528 17.0848,-31.8097 2.1477,0 2.7111,3.022 2.6542,4.786 -0.7637,1.3314 -1.8678,2.7566 -2.5668,3.6589 -0.1504,0.1939 -0.2814,0.3633 -0.4272,0.5572 -0.426,0.5682 -0.4974,1.0189 -0.3106,1.4883 0.0294,0.0742 0.0636,0.1425 0.1021,0.2066l0.8906 -1.1997 0.0002 0.0002c0.9175,-1.2173 3.7217,-4.5959 3.9938,-6.7131l0 -6.1904 0 -1.642c0,-0.3996 0.3269,-0.7264 0.7265,-0.7264l0.8209 0 0.8209 0c0.3996,0 0.7265,0.3268 0.7265,0.7264l0 1.642 0 6.1904c0.2721,2.1172 3.0763,5.4958 3.9938,6.7131l0.0002 -0.0002 0.8906 1.1997c0.0385,-0.0641 0.0727,-0.1324 0.1021,-0.2066 0.1868,-0.4694 0.1154,-0.9201 -0.3106,-1.4883 -0.1458,-0.1939 -0.2768,-0.3633 -0.4272,-0.5572 -0.699,-0.9023 -1.8031,-2.3275 -2.5668,-3.6589 -0.0569,-1.764 0.5065,-4.786 2.6542,-4.786 9.4748,-0.0431 17.0848,24.7805 17.0848,31.8097 0,3.5325 -0.5613,4.6066 -3.556,4.0219 -2.9949,-0.5848 -2.3327,-1.3145 -9.1547,-3.3532 -6.822,-2.0388 -7.6817,0.3418 -7.8911,-3.9032 -0.2095,-4.2451 -0.1732,-12.1931 -0.1717,-14.6065 0.0016,-2.4136 0.0746,-2.392 0.1993,-3.698 0.2914,0.4151 0.5644,0.8097 0.7962,1.1541l0.0194 0.0291c0.5202,0.7085 0.9924,0.8047 1.4874,0.6111l-0.8101 -1.0616 -0.0268 -0.0353 -0.0001 -0.0002 -0.0293 -0.0382 0.0014 -0.0011c-1.3713,-1.9382 -3.7592,-5.2556 -3.7592,-5.2556l-0.0146 0 -0.0586 0z"/>
  </g>
 </g>
</svg>
