<?xml version="1.0" encoding="UTF-8"?>
<!DOCTYPE svg PUBLIC "-//W3C//DTD SVG 1.1//EN" "http://www.w3.org/Graphics/SVG/1.1/DTD/svg11.dtd">
<!-- Creator: CorelDRAW -->
<svg xmlns="http://www.w3.org/2000/svg" xml:space="preserve" width="44.8744mm" height="132.407mm" style="shape-rendering:geometricPrecision; text-rendering:geometricPrecision; image-rendering:optimizeQuality; fill-rule:evenodd; clip-rule:evenodd"
viewBox="0 0 44.8744 132.407"
 xmlns:xlink="http://www.w3.org/1999/xlink">
 <defs>
  <style type="text/css">
   <![CDATA[
    .fil0 {fill:#DA251D}
    .fil1 {fill:white}
   ]]>
  </style>
 </defs>
 <g id="Ebene_x0020_1">
  <metadata id="CorelCorpID_0Corel-Layer"/>
  <path class="fil0" d="M18.2925 16.5406c-0.104,0.4473 -0.2784,1.0564 -0.565,1.8274 -1.2498,0.9938 -4.8861,2.2173 -5.9777,3.0097 -1.0916,0.7924 -2.6526,0.7258 -5.3946,1.72 -2.7421,0.994 -3.4079,3.1373 -4.1987,6.8875 -0.7908,3.7502 -0.5041,9.7645 -0.9468,12.4265 -0.4426,2.6621 -1.3665,4.2248 -1.187,10.8215 0.1795,6.5966 0.9951,12.7243 1.187,13.5665 0.1919,0.8421 0.782,3.2024 0.6634,4.0651 -0.1186,0.8628 -0.6527,2.4647 -0.4832,3.6093 0.1695,1.1446 0.7107,2.7464 1.0096,3.3851 0.4967,1.0611 0.8253,0.4018 1.0218,0.3973 0.4357,-0.01 0.6957,0.668 0.9691,0.6674 1.0224,-0.0023 1.2907,-1.2441 1.3214,-3.0601 0.4134,-0.1893 0.3669,0.6809 0.4546,0.8964 0.1789,0.4397 0.2433,0.5893 0.4068,0.6598 0.1635,0.0705 0.5377,-0.0461 0.3197,-0.6452 -0.218,-0.5992 -0.1386,-2.4814 -0.2476,-3.1334 -0.109,-0.6521 -0.318,-1.4361 -0.5723,-1.8415 -0.2543,-0.4053 -0.7328,-7.5438 -0.5528,-10.0933 0.18,-2.5496 0.2067,-6.9391 0.4242,-8.0644 0.2175,-1.1253 1.6677,-6.119 1.7402,-9.4949 0.0725,-3.3759 0.1906,-8.2898 0.1906,-8.2898 0,0 1.0405,5.3083 1.4031,6.3632 0.3625,1.055 1.8568,6.4056 1.6392,9.1419 -0.2175,2.7362 -2.7625,11.7417 -2.835,13.0076 -0.0725,1.266 0.0542,8.5875 0.5778,10.8145 0.5236,2.2271 1.2353,11.2137 1.6272,12.9779 0.3919,1.7641 1.4082,3.8617 1.6152,7.3421 0.207,3.4803 -0.276,9.571 -0.207,11.5789 0.069,2.0079 1.725,9.3032 2.76,13.1182 1.035,3.815 0.966,5.5552 0.897,6.3584 -0.069,0.8031 -0.276,2.4095 -0.621,2.811 -0.345,0.4016 -2.6657,1.2483 -3.625,1.585 -0.9593,0.3367 -2.2065,1.6113 0.604,1.4343 2.8105,-0.1771 4.7185,-0.5812 5.704,-0.5458 0.9855,0.0355 2.117,0.4603 2.8105,0.5311 0.6935,0.0708 1.4965,-0.5665 1.314,-1.7348 -0.1825,-1.1684 -0.8395,-2.1951 -0.8395,-2.9386 0,-0.7435 -0.7665,-8.0016 -0.9125,-10.6923 -0.146,-2.6908 1.0067,-7.1522 0.7874,-10.2721 -0.2193,-3.12 -0.8041,-4.8217 -0.8041,-5.5308 0,-0.7091 1.462,-4.9635 1.2427,-9.2179 -0.2069,-4.0137 0.1081,-19.3036 1.424,-22.6973 1.3159,3.3937 1.6309,18.6836 1.424,22.6973 -0.2193,4.2544 1.2427,8.5088 1.2427,9.2179 0,0.7091 -0.5848,2.4108 -0.8041,5.5308 -0.2193,3.1199 0.9334,7.5813 0.7874,10.2721 -0.146,2.6907 -0.9125,9.9488 -0.9125,10.6923 0,0.7435 -0.657,1.7702 -0.8395,2.9386 -0.1825,1.1683 0.6205,1.8056 1.314,1.7348 0.6935,-0.0708 1.825,-0.4956 2.8105,-0.5311 0.9855,-0.0354 2.8935,0.3687 5.704,0.5458 2.8105,0.177 1.5633,-1.0976 0.604,-1.4343 -0.9593,-0.3367 -3.28,-1.1834 -3.625,-1.585 -0.345,-0.4015 -0.552,-2.0079 -0.621,-2.811 -0.069,-0.8032 -0.138,-2.5434 0.897,-6.3584 1.035,-3.815 2.691,-11.1103 2.76,-13.1182 0.069,-2.0079 -0.414,-8.0986 -0.207,-11.5789 0.207,-3.4804 1.2233,-5.578 1.6152,-7.3421 0.3919,-1.7642 1.1036,-10.7508 1.6272,-12.9779 0.5236,-2.227 0.6503,-9.5485 0.5778,-10.8145 -0.0725,-1.2659 -2.6175,-10.2714 -2.835,-13.0076 -0.2176,-2.7363 1.2767,-8.0869 1.6392,-9.1419 0.3626,-1.0549 1.4031,-6.3632 1.4031,-6.3632 0,0 0.1181,4.9139 0.1906,8.2898 0.0725,3.3759 1.5227,8.3696 1.7402,9.4949 0.2175,1.1253 0.2442,5.5148 0.4242,8.0644 0.18,2.5495 -0.2985,9.688 -0.5528,10.0933 -0.2543,0.4054 -0.4633,1.1894 -0.5723,1.8415 -0.109,0.652 -0.0296,2.5342 -0.2476,3.1334 -0.218,0.5991 0.1562,0.7157 0.3197,0.6452 0.1635,-0.0705 0.2279,-0.2201 0.4068,-0.6598 0.0877,-0.2155 0.0412,-1.0857 0.4546,-0.8964 0.0307,1.816 0.299,3.0578 1.3214,3.0601 0.2734,0.0006 0.5334,-0.6774 0.9691,-0.6674 0.1965,0.0045 0.5251,0.6638 1.0218,-0.3973 0.2989,-0.6387 0.8401,-2.2405 1.0096,-3.3851 0.1695,-1.1446 -0.3646,-2.7465 -0.4832,-3.6093 -0.1186,-0.8627 0.4715,-3.223 0.6634,-4.0651 0.1919,-0.8422 1.0075,-6.9699 1.187,-13.5665 0.1795,-6.5967 -0.7444,-8.1594 -1.187,-10.8215 -0.4427,-2.662 -0.156,-8.6763 -0.9468,-12.4265 -0.7908,-3.7502 -1.4566,-5.8935 -4.1987,-6.8875 -2.742,-0.9942 -4.303,-0.9276 -5.3946,-1.72 -1.0916,-0.7924 -4.7279,-2.0159 -5.9777,-3.0097 -0.2866,-0.771 -0.461,-1.3801 -0.565,-1.8274 0.1818,-0.0812 0.3469,-0.1712 0.4876,-0.2712 1.0355,-0.7367 1.259,-4.0605 1.3247,-4.4573 0.3454,0.4396 1.1775,-0.2305 1.2505,-0.7539 0.073,-0.5232 0.5009,-3.2143 0.1212,-3.3818 -0.3797,-0.1674 -0.9069,0.1474 -0.9069,0.1474 0,0 -0.2729,-2.8223 -1.1669,-5.178 -0.7663,-2.0192 -4.2696,-2.5386 -5.2549,-2.6458 -0.9853,0.1072 -4.4886,0.6266 -5.2549,2.6458 -0.894,2.3557 -1.1669,5.178 -1.1669,5.178 0,0 -0.5272,-0.3148 -0.9069,-0.1474 -0.3797,0.1675 0.0482,2.8586 0.1212,3.3818 0.073,0.5234 0.9051,1.1935 1.2505,0.7539 0.0657,0.3968 0.2892,3.7206 1.3247,4.4573 0.1407,0.1 0.3058,0.19 0.4876,0.2712z"/>
  <path class="fil1" d="M22.3467 31.9362c0.0095,-0.4792 0.0125,-1.2527 -0.0589,-1.4884 0.2921,-0.2016 0.6249,-0.3314 0.6249,-0.3314l0.6106 0.7534c-0.0288,0.1131 -0.0522,0.2276 -0.0704,0.3424 -0.2911,0.133 -0.571,0.3046 -0.8491,0.5173 -0.0862,0.066 -0.1724,0.1348 -0.2571,0.2067zm5.1305 7.6878c0,0 1.7843,0.0569 1.8412,-2.1449 0.057,-2.2019 -0.7531,-3.8353 -1.2922,-4.7867 -0.0634,-0.1119 -0.1342,-0.2199 -0.2114,-0.3235 0.0125,0.0167 0.0248,0.0336 0.037,0.0506 -0.0357,0.069 -0.0773,0.1373 -0.1256,0.2051 -0.1424,0.1997 -0.316,0.2446 -0.4931,0.2047 -0.01,0.2265 0.0171,0.3952 0.0172,0.3963l0.0138 0.089 -0.2066 -0.0593c-0.0009,-0.0057 -0.0406,-0.2584 -0.0073,-0.5726l0.0004 -0.0032 0.0003 -0.0031 0.0022 -0.0192 0.0004 -0.0032 0.0004 -0.0032 0.0003 -0.0032c0.0008,-0.0064 0.0016,-0.0128 0.0025,-0.0193l0.0004 -0.0032 0.0004 -0.0032 0.0005 -0.0033 0.0022 -0.0162 0.0005 -0.0033 0.0005 -0.0032c0.0013,-0.0087 0.0026,-0.0175 0.004,-0.0262l0.0005 -0.0033 0.0006 -0.0033c0.0391,-0.2407 0.1255,-0.5023 0.3038,-0.7107 0.1303,-0.1523 0.3114,-0.2884 0.5032,-0.4051l0.0091 -0.0055 0.0176 -0.0106 0.0089 -0.0052c0.0092,-0.0055 0.0184,-0.0109 0.0276,-0.0162l0.0119 -0.0069 0.0177 -0.0101 0.0082 -0.0047 0.0176 -0.0099 0.0008 -0.0004c0.0076,-0.0043 0.0153,-0.0085 0.0229,-0.0127l0.0156 -0.0085 0.0106 -0.0057 0.0159 -0.0086 0.0111 -0.0059c0.0187,-0.01 0.0374,-0.0197 0.056,-0.0292l0.0094 -0.0048 0.0177 -0.009 0.0034 -0.0017c0.0124,-0.0063 0.0248,-0.0124 0.0372,-0.0185l0.0066 -0.0033 0.018 -0.0088 0.0076 -0.0037c0.028,-0.0135 0.0556,-0.0265 0.0828,-0.0391l0.0036 -0.0016c0.0133,-0.0061 0.0265,-0.0122 0.0396,-0.0181l0.0008 -0.0003 0.0174 -0.0078 0.0092 -0.0041 0.0156 -0.0069 0.0208 -0.0091 0.0001 0 0.0135 -0.0059 0.0103 -0.0044 0.0148 -0.0064 0.0067 -0.0028c0.0113,-0.0049 0.0225,-0.0096 0.0336,-0.0142l0.0019 -0.0008 0.0185 -0.0077 0.0013 -0.0006 0.0183 -0.0075 0.0007 -0.0003c0.0106,-0.0043 0.0209,-0.0085 0.0311,-0.0126l0.0086 -0.0034 0.0122 -0.0049 0.0073 -0.0029 0.0131 -0.0051 0.0172 -0.0068 0.0145 -0.0056 0.0041 -0.0016c0.0213,-0.0082 0.0415,-0.0159 0.0606,-0.023l0.002 -0.0007 0.0134 -0.005 0.0141 -0.0052 0.0026 -0.0009 0.011 -0.0041 0.0022 -0.0008 0.0234 -0.0084 0.012 -0.0043 0.004 -0.0014 0.0074 -0.0026 0.008 -0.0028 0.0028 -0.001 0.0103 -0.0036 0.0012 -0.0004 0.0084 -0.0029 0.0047 -0.0016 0.0043 -0.0015 0.0076 -0.0025 0.0008 -0.0003 0.0077 -0.0026 0.0021 -0.0007 0.005 -0.0017 0.0044 -0.0014 0.002 -0.0007 0.0056 -0.0019 0.0004 -0.0001 0.0046 -0.0015 0.002 -0.0006 0.0022 -0.0008 0.003 -0.0009 0.0005 -0.0002 0.0028 -0.0009 0.0005 -0.0002 0.0015 -0.0004 0.0008 -0.0003 0.0004 -0.0001 0.0004 -0.0001c0,0 0.0001,-1.0568 -0.3117,-0.979 -0.0045,0.0011 -0.0093,0.0023 -0.0142,0.0036l-0.001 0.0003 -0.0011 0.0003 -0.0131 0.0035 -0.0022 0.0006 -0.0021 0.0006 -0.0146 0.0042 -0.0022 0.0006 -0.0174 0.0052 -0.0001 0c-0.0186,0.0056 -0.0388,0.012 -0.0604,0.019l-0.0023 0.0007 -0.0001 0.0001 -0.0022 0.0007 -0.0182 0.006 -0.001 0.0003 -0.0014 0.0005 -0.0025 0.0008 -0.0185 0.0062 -0.003 0.0011 -0.003 0.001 -0.0171 0.0058 -0.0049 0.0017 -0.007 0.0024 -0.0172 0.006 -0.0029 0.0011 -0.0168 0.0059 -0.0087 0.0031 -0.0039 0.0014 -0.0215 0.0077 -0.0022 0.0008 -0.0022 0.0008 -0.0253 0.0092 -0.001 0.0004 -0.0004 0.0001 -0.0274 0.0101 -0.0015 0.0006 -0.0013 0.0005 -0.0252 0.0093 -0.0036 0.0014 -0.0021 0.0008 -0.0278 0.0105 -0.0025 0.0009 -0.0282 0.0108 -0.0019 0.0007 -0.0069 0.0027 -0.0197 0.0076 -0.0106 0.0041 -0.0153 0.006 -0.0127 0.0049 -0.0028 0.0011 -0.0246 0.0097 -0.0062 0.0024 -0.0006 0.0003 -0.0159 0.0063 -0.0161 0.0064 -0.0016 0.0006 -0.0001 0.0001 -0.0269 0.0108 -0.0155 0.0062 -0.0047 0.0019 -0.0165 0.0067 -0.0127 0.0052 -0.004 0.0016 -0.0167 0.0069 -0.0088 0.0036 -0.0028 0.0011 -0.0323 0.0134 -0.0013 0.0005 -0.0057 0.0024 -0.0172 0.0071 -0.0054 0.0023 -0.0165 0.0069 -0.0217 0.0092 -0.0075 0.0031 -0.001 0.0004 -0.0175 0.0074 -0.0177 0.0075 -0.0015 0.0007 -0.0162 0.0069 -0.0177 0.0076c-0.4339,0.1864 -0.9356,0.4302 -1.3115,0.6739 -0.0107,0.0069 -0.0214,0.0141 -0.032,0.0214l-0.0019 0.0012c-0.01,0.0069 -0.02,0.0139 -0.03,0.0211l-0.0036 0.0025c-0.0096,0.007 -0.0192,0.014 -0.0287,0.0212l-0.0042 0.0031c-0.0089,0.0067 -0.0178,0.0136 -0.0267,0.0205l-0.0078 0.0061c-0.0076,0.006 -0.0152,0.0121 -0.0227,0.0182l-0.0131 0.0107c-0.0054,0.0045 -0.0109,0.009 -0.0163,0.0136 -0.0058,0.0048 -0.0116,0.0097 -0.0174,0.0147l-0.0123 0.0106 -0.0036 0.0032 -0.0146 0.0128 -0.0037 0.0033c-0.6021,0.535 -1.102,1.4891 -1.106,1.4967l-0.1912 -0.0549 0.0188 -0.0358c0.0016,-0.003 0.4672,-0.8939 1.0592,-1.4671 -0.1819,-0.0431 -0.366,-0.0678 -0.5493,-0.072 -0.0296,0.0952 -0.042,0.2053 -0.039,0.3227 0.0017,0.0641 -0.0047,0.0317 0.0062,0.0996 -0.025,0.0258 -0.1391,0.1827 -0.2096,0.3492l-0.0002 0.0005c0.0287,-0.0822 0.0407,-0.1569 0.0306,-0.2202 -0.0883,-0.5495 0.0852,-1.066 0.6447,-1.0803 0.2545,-0.0065 0.4095,0.1171 0.5019,0.2929 0.2992,-0.1904 0.6683,-0.3792 1.0208,-0.5409 0.0971,-0.0445 0.1931,-0.087 0.2862,-0.127 -0.2801,-0.5729 -0.8882,-1.1454 -1.8366,-1.1325 -0.9488,0.0129 -1.5667,0.5037 -1.9712,1.511 -0.1095,0.2724 -0.1777,0.5633 -0.213,0.8541l-0.0115 0.0052 0.0115 -0.0052c-0.0951,0.7845 0.0502,1.5689 0.2778,1.9929l-0.15 0.1324 -0.0215 -0.0402c-0.1823,-0.3398 -0.3155,-0.8886 -0.3291,-1.4867 -0.0037,-0.1633 0.0014,-0.3308 0.0168,-0.4992 -0.2238,0.1159 -0.4418,0.2563 -0.659,0.4224 -0.7876,0.6026 -1.5637,1.4317 -1.2531,2.8703 0.3106,1.4387 1.0942,2.4465 2.2884,3.0004 1.1942,0.5539 2.8293,1.8176 3.6815,1.8489zm-0.2262 -6.9912c0.1189,0.028 0.2301,0.0005 0.3167,-0.1209 0.0619,-0.0869 0.1114,-0.1756 0.1506,-0.2664 0.0126,0.0153 0.025,0.0307 0.0373,0.0462 -0.0123,-0.0155 -0.0247,-0.0309 -0.0373,-0.0462 0.076,-0.1755 0.1136,-0.3588 0.1292,-0.5518 -0.1263,0.0865 -0.2413,0.182 -0.3296,0.2852 -0.1617,0.189 -0.2357,0.4324 -0.2669,0.6539zm1.3263 -2.623c-0.0045,0.0011 -0.0093,0.0023 -0.0142,0.0036m-4.233 2.9405l0 0.0001 -0.0001 0.0001 0.0001 -0.0002zm3.4838 -0.5863c-0.0188,-0.0252 -0.0379,-0.0501 -0.0574,-0.0748 0.0195,0.0247 0.0386,0.0496 0.0574,0.0748zm-4.2007 -0.9793c-0.027,0.0121 -0.0539,0.0246 -0.0808,0.0374 0.0269,-0.0128 0.0538,-0.0253 0.0808,-0.0374zm-0.0862 0.04c-0.0262,0.0125 -0.0523,0.0254 -0.0783,0.0386 0.026,-0.0132 0.0521,-0.0261 0.0783,-0.0386zm-0.0809 0.04c-0.0087,0.0044 -0.0173,0.0088 -0.0259,0.0132 0.0086,-0.0044 0.0172,-0.0089 0.0259,-0.0132z"/>
 </g>
</svg>
