<?xml version="1.0" encoding="UTF-8"?>
<!DOCTYPE svg PUBLIC "-//W3C//DTD SVG 1.1//EN" "http://www.w3.org/Graphics/SVG/1.1/DTD/svg11.dtd">
<!-- Creator: CorelDRAW -->
<svg xmlns="http://www.w3.org/2000/svg" xml:space="preserve" width="44.8744mm" height="132.407mm" style="shape-rendering:geometricPrecision; text-rendering:geometricPrecision; image-rendering:optimizeQuality; fill-rule:evenodd; clip-rule:evenodd"
viewBox="0 0 44.8744 132.407"
 xmlns:xlink="http://www.w3.org/1999/xlink">
 <defs>
  <style type="text/css">
   <![CDATA[
    .fil0 {fill:#DA251D}
    .fil1 {fill:white}
   ]]>
  </style>
 </defs>
 <g id="Ebene_x0020_1">
  <metadata id="CorelCorpID_0Corel-Layer"/>
  <path class="fil0" d="M18.2925 16.5406c-0.104,0.4473 -0.2784,1.0564 -0.565,1.8274 -1.2498,0.9938 -4.8861,2.2173 -5.9777,3.0097 -1.0916,0.7924 -2.6526,0.7258 -5.3946,1.72 -2.7421,0.994 -3.4079,3.1373 -4.1987,6.8875 -0.7908,3.7502 -0.5041,9.7645 -0.9468,12.4265 -0.4426,2.6621 -1.3665,4.2248 -1.187,10.8215 0.1795,6.5966 0.9951,12.7243 1.187,13.5665 0.1919,0.8421 0.782,3.2024 0.6634,4.0651 -0.1186,0.8628 -0.6527,2.4647 -0.4832,3.6093 0.1695,1.1446 0.7107,2.7464 1.0096,3.3851 0.4967,1.0611 0.8253,0.4018 1.0218,0.3973 0.4357,-0.01 0.6957,0.668 0.9691,0.6674 1.0224,-0.0023 1.2907,-1.2441 1.3214,-3.0601 0.4134,-0.1893 0.3669,0.6809 0.4546,0.8964 0.1789,0.4397 0.2433,0.5893 0.4068,0.6598 0.1635,0.0705 0.5377,-0.0461 0.3197,-0.6452 -0.218,-0.5992 -0.1386,-2.4814 -0.2476,-3.1334 -0.109,-0.6521 -0.318,-1.4361 -0.5723,-1.8415 -0.2543,-0.4053 -0.7328,-7.5438 -0.5528,-10.0933 0.18,-2.5496 0.2067,-6.9391 0.4242,-8.0644 0.2175,-1.1253 1.6677,-6.119 1.7402,-9.4949 0.0725,-3.3759 0.1906,-8.2898 0.1906,-8.2898 0,0 1.0405,5.3083 1.4031,6.3632 0.3625,1.055 1.8568,6.4056 1.6392,9.1419 -0.2175,2.7362 -2.7625,11.7417 -2.835,13.0076 -0.0725,1.266 0.0542,8.5875 0.5778,10.8145 0.5236,2.2271 1.2353,11.2137 1.6272,12.9779 0.3919,1.7641 1.4082,3.8617 1.6152,7.3421 0.207,3.4803 -0.276,9.571 -0.207,11.5789 0.069,2.0079 1.725,9.3032 2.76,13.1182 1.035,3.815 0.966,5.5552 0.897,6.3584 -0.069,0.8031 -0.276,2.4095 -0.621,2.811 -0.345,0.4016 -2.6657,1.2483 -3.625,1.585 -0.9593,0.3367 -2.2065,1.6113 0.604,1.4343 2.8105,-0.1771 4.7185,-0.5812 5.704,-0.5458 0.9855,0.0355 2.117,0.4603 2.8105,0.5311 0.6935,0.0708 1.4965,-0.5665 1.314,-1.7348 -0.1825,-1.1684 -0.8395,-2.1951 -0.8395,-2.9386 0,-0.7435 -0.7665,-8.0016 -0.9125,-10.6923 -0.146,-2.6908 1.0067,-7.1522 0.7874,-10.2721 -0.2193,-3.12 -0.8041,-4.8217 -0.8041,-5.5308 0,-0.7091 1.462,-4.9635 1.2427,-9.2179 -0.2069,-4.0137 0.1081,-19.3036 1.424,-22.6973 1.3159,3.3937 1.6309,18.6836 1.424,22.6973 -0.2193,4.2544 1.2427,8.5088 1.2427,9.2179 0,0.7091 -0.5848,2.4108 -0.8041,5.5308 -0.2193,3.1199 0.9334,7.5813 0.7874,10.2721 -0.146,2.6907 -0.9125,9.9488 -0.9125,10.6923 0,0.7435 -0.657,1.7702 -0.8395,2.9386 -0.1825,1.1683 0.6205,1.8056 1.314,1.7348 0.6935,-0.0708 1.825,-0.4956 2.8105,-0.5311 0.9855,-0.0354 2.8935,0.3687 5.704,0.5458 2.8105,0.177 1.5633,-1.0976 0.604,-1.4343 -0.9593,-0.3367 -3.28,-1.1834 -3.625,-1.585 -0.345,-0.4015 -0.552,-2.0079 -0.621,-2.811 -0.069,-0.8032 -0.138,-2.5434 0.897,-6.3584 1.035,-3.815 2.691,-11.1103 2.76,-13.1182 0.069,-2.0079 -0.414,-8.0986 -0.207,-11.5789 0.207,-3.4804 1.2233,-5.578 1.6152,-7.3421 0.3919,-1.7642 1.1036,-10.7508 1.6272,-12.9779 0.5236,-2.227 0.6503,-9.5485 0.5778,-10.8145 -0.0725,-1.2659 -2.6175,-10.2714 -2.835,-13.0076 -0.2176,-2.7363 1.2767,-8.0869 1.6392,-9.1419 0.3626,-1.0549 1.4031,-6.3632 1.4031,-6.3632 0,0 0.1181,4.9139 0.1906,8.2898 0.0725,3.3759 1.5227,8.3696 1.7402,9.4949 0.2175,1.1253 0.2442,5.5148 0.4242,8.0644 0.18,2.5495 -0.2985,9.688 -0.5528,10.0933 -0.2543,0.4054 -0.4633,1.1894 -0.5723,1.8415 -0.109,0.652 -0.0296,2.5342 -0.2476,3.1334 -0.218,0.5991 0.1562,0.7157 0.3197,0.6452 0.1635,-0.0705 0.2279,-0.2201 0.4068,-0.6598 0.0877,-0.2155 0.0412,-1.0857 0.4546,-0.8964 0.0307,1.816 0.299,3.0578 1.3214,3.0601 0.2734,0.0006 0.5334,-0.6774 0.9691,-0.6674 0.1965,0.0045 0.5251,0.6638 1.0218,-0.3973 0.2989,-0.6387 0.8401,-2.2405 1.0096,-3.3851 0.1695,-1.1446 -0.3646,-2.7465 -0.4832,-3.6093 -0.1186,-0.8627 0.4715,-3.223 0.6634,-4.0651 0.1919,-0.8422 1.0075,-6.9699 1.187,-13.5665 0.1795,-6.5967 -0.7444,-8.1594 -1.187,-10.8215 -0.4427,-2.662 -0.156,-8.6763 -0.9468,-12.4265 -0.7908,-3.7502 -1.4566,-5.8935 -4.1987,-6.8875 -2.742,-0.9942 -4.303,-0.9276 -5.3946,-1.72 -1.0916,-0.7924 -4.7279,-2.0159 -5.9777,-3.0097 -0.2866,-0.771 -0.461,-1.3801 -0.565,-1.8274 0.1818,-0.0812 0.3469,-0.1712 0.4876,-0.2712 1.0355,-0.7367 1.259,-4.0605 1.3247,-4.4573 0.3454,0.4396 1.1775,-0.2305 1.2505,-0.7539 0.073,-0.5232 0.5009,-3.2143 0.1212,-3.3818 -0.3797,-0.1674 -0.9069,0.1474 -0.9069,0.1474 0,0 -0.2729,-2.8223 -1.1669,-5.178 -0.7663,-2.0192 -4.2696,-2.5386 -5.2549,-2.6458 -0.9853,0.1072 -4.4886,0.6266 -5.2549,2.6458 -0.894,2.3557 -1.1669,5.178 -1.1669,5.178 0,0 -0.5272,-0.3148 -0.9069,-0.1474 -0.3797,0.1675 0.0482,2.8586 0.1212,3.3818 0.073,0.5234 0.9051,1.1935 1.2505,0.7539 0.0657,0.3968 0.2892,3.7206 1.3247,4.4573 0.1407,0.1 0.3058,0.19 0.4876,0.2712z"/>
  <path class="fil1" d="M22.2648 25.0371l-0.0285 0 -0.0071 0c0,0 -1.1632,1.6158 -1.8312,2.56l0.0007 0.0005 -0.0142 0.0186 -0.0001 0.0001 -0.0131 0.0172 -0.3946 0.5171c0.2411,0.0943 0.4712,0.0474 0.7245,-0.2977l0.0095 -0.0142c0.1129,-0.1677 0.2459,-0.3599 0.3878,-0.5621 0.0608,0.6361 0.0963,0.6256 0.0971,1.8013 0.0008,1.1756 0.0184,5.0471 -0.0836,7.1148 -0.102,2.0678 -0.5208,0.9082 -3.8438,1.9013 -3.323,0.993 -3.0005,1.3485 -4.4593,1.6333 -1.4587,0.2849 -1.7321,-0.2383 -1.7321,-1.959 0,-3.424 3.7068,-15.5156 8.322,-15.4946 1.0462,0 1.3206,1.472 1.2929,2.3312 -0.372,0.6486 -0.9098,1.3428 -1.2503,1.7823 -0.0733,0.0945 -0.1371,0.177 -0.2081,0.2715 -0.2075,0.2767 -0.2423,0.4963 -0.1513,0.7249 0.0144,0.0361 0.031,0.0694 0.0498,0.1006l0.4338 -0.5843 0.0001 0.0001c0.4469,-0.593 1.8128,-2.2387 1.9453,-3.27l0 -3.0154 0 -0.7998c0,-0.1947 0.1593,-0.3538 0.3539,-0.3538l0.3999 0 0.3999 0c0.1946,0 0.3539,0.1591 0.3539,0.3538l0 0.7998 0 3.0154c0.1325,1.0313 1.4984,2.677 1.9453,3.27l0.0001 -0.0001 0.4338 0.5843c0.0188,-0.0312 0.0354,-0.0645 0.0498,-0.1006 0.091,-0.2286 0.0562,-0.4482 -0.1513,-0.7249 -0.071,-0.0945 -0.1348,-0.177 -0.2081,-0.2715 -0.3405,-0.4395 -0.8783,-1.1337 -1.2503,-1.7823 -0.0277,-0.8592 0.2467,-2.3312 1.2929,-2.3312 4.6152,-0.021 8.322,12.0706 8.322,15.4946 0,1.7207 -0.2734,2.2439 -1.7321,1.959 -1.4588,-0.2848 -1.1363,-0.6403 -4.4593,-1.6333 -3.323,-0.9931 -3.7418,0.1665 -3.8438,-1.9013 -0.102,-2.0677 -0.0844,-5.9392 -0.0836,-7.1148 0.0008,-1.1757 0.0363,-1.1652 0.0971,-1.8013 0.1419,0.2022 0.2749,0.3944 0.3878,0.5621l0.0095 0.0142c0.2533,0.3451 0.4834,0.392 0.7245,0.2977l-0.3946 -0.5171 -0.0131 -0.0172 -0.0001 -0.0001 -0.0142 -0.0186 0.0007 -0.0005c-0.668,-0.9442 -1.8312,-2.56 -1.8312,-2.56l-0.0071 0 -0.0285 0z"/>
 </g>
</svg>
