<?xml version="1.0" encoding="utf-8"?>
<!-- Generator: Adobe Illustrator 15.1.0, SVG Export Plug-In . SVG Version: 6.00 Build 0)  -->
<!DOCTYPE svg PUBLIC "-//W3C//DTD SVG 1.1//EN" "http://www.w3.org/Graphics/SVG/1.1/DTD/svg11.dtd">
<svg version="1.1" id="Ebene_1" xmlns="http://www.w3.org/2000/svg" xmlns:xlink="http://www.w3.org/1999/xlink" x="0px" y="0px"
	 width="127.203px" height="375.328px" viewBox="0 0 127.203 375.328" enable-background="new 0 0 127.203 375.328"
	 xml:space="preserve">
<g id="Ebene_x0020_1">
	<path fill="#333333" d="M51.853,46.887c-0.294,1.268-0.789,2.995-1.602,5.18c-3.542,2.817-13.85,6.285-16.944,8.531
		s-7.52,2.058-15.292,4.875c-7.773,2.818-9.66,8.894-11.902,19.524s-1.429,27.679-2.684,35.225s-3.874,11.976-3.365,30.675
		c0.509,18.699,2.821,36.069,3.365,38.456c0.544,2.388,2.217,9.078,1.88,11.523s-1.85,6.986-1.37,10.23
		c0.48,3.245,2.015,7.785,2.862,9.596c1.408,3.008,2.339,1.14,2.896,1.127c1.235-0.028,1.972,1.894,2.747,1.892
		c2.898-0.007,3.659-3.526,3.746-8.675c1.172-0.536,1.04,1.931,1.289,2.541c0.507,1.247,0.69,1.671,1.153,1.871
		c0.463,0.199,1.524-0.131,0.906-1.829c-0.618-1.698-0.393-7.034-0.702-8.882c-0.309-1.849-0.901-4.071-1.622-5.221
		c-0.721-1.148-2.077-21.384-1.567-28.61c0.51-7.228,0.586-19.67,1.202-22.86c0.617-3.19,4.728-17.345,4.933-26.915
		c0.206-9.57,0.54-23.499,0.54-23.499s2.95,15.047,3.978,18.037c1.027,2.991,5.263,18.158,4.646,25.914s-7.831,33.284-8.036,36.872
		s0.153,24.342,1.638,30.656c1.484,6.312,3.501,31.786,4.613,36.787c1.111,5,3.992,10.947,4.578,20.812
		c0.587,9.865-0.782,27.131-0.586,32.822c0.195,5.691,4.89,26.371,7.823,37.186c2.934,10.814,2.738,15.746,2.543,18.023
		c-0.196,2.276-0.782,6.83-1.76,7.969c-0.978,1.138-7.557,3.537-10.276,4.492s-6.254,4.567,1.712,4.066
		c7.967-0.502,13.375-1.648,16.169-1.548c2.793,0.101,6,1.305,7.966,1.505c1.966,0.201,4.242-1.605,3.725-4.917
		c-0.518-3.312-2.38-6.222-2.38-8.329c0-2.108-2.173-22.683-2.586-30.31c-0.414-7.628,2.854-20.274,2.232-29.118
		s-2.279-13.668-2.279-15.678s4.144-14.069,3.522-26.129c-0.586-11.378,0.307-54.719,4.037-64.34
		c3.73,9.621,4.623,52.963,4.037,64.34c-0.622,12.06,3.521,24.119,3.521,26.129s-1.657,6.834-2.279,15.678
		c-0.621,8.844,2.646,21.49,2.232,29.118c-0.414,7.627-2.586,28.201-2.586,30.31c0,2.107-1.863,5.018-2.381,8.329
		c-0.517,3.312,1.76,5.118,3.725,4.917c1.967-0.2,5.174-1.404,7.967-1.505c2.794-0.101,8.203,1.046,16.17,1.548
		c7.967,0.501,4.432-3.111,1.711-4.066c-2.719-0.955-9.297-3.354-10.275-4.492c-0.978-1.139-1.564-5.692-1.76-7.969
		c-0.195-2.277-0.391-7.21,2.543-18.023c2.934-10.814,7.627-31.494,7.823-37.186s-1.173-22.957-0.587-32.822
		c0.587-9.865,3.468-15.812,4.578-20.812c1.111-5.001,3.129-30.475,4.613-36.787c1.484-6.313,1.844-27.067,1.638-30.656
		s-7.42-29.116-8.036-36.872c-0.617-7.756,3.619-22.923,4.646-25.914c1.027-2.99,3.977-18.037,3.977-18.037
		s0.336,13.929,0.541,23.499c0.205,9.569,4.316,23.725,4.933,26.915s0.692,15.632,1.202,22.86c0.511,7.227-0.846,27.462-1.566,28.61
		c-0.721,1.149-1.313,3.372-1.623,5.221c-0.309,1.848-0.083,7.184-0.701,8.882s0.443,2.028,0.906,1.829
		c0.463-0.2,0.646-0.624,1.153-1.871c0.249-0.61,0.116-3.077,1.288-2.541c0.088,5.148,0.848,8.668,3.746,8.675
		c0.775,0.002,1.512-1.92,2.747-1.892c0.558,0.013,1.488,1.881,2.896-1.127c0.847-1.811,2.382-6.351,2.862-9.596
		c0.48-3.244-1.034-7.785-1.37-10.23c-0.337-2.445,1.337-9.136,1.88-11.523c0.545-2.387,2.856-19.757,3.365-38.456
		c0.509-18.7-2.11-23.129-3.365-30.675c-1.254-7.546-0.441-24.594-2.684-35.225c-2.241-10.63-4.129-16.706-11.901-19.524
		s-12.198-2.629-15.292-4.875s-13.402-5.714-16.945-8.531c-0.812-2.186-1.307-3.912-1.602-5.18c0.516-0.23,0.984-0.485,1.383-0.769
		c2.936-2.088,3.568-11.51,3.755-12.635c0.979,1.247,3.338-0.653,3.545-2.137s1.42-9.111,0.344-9.586
		c-1.077-0.475-2.571,0.418-2.571,0.418s-0.773-8-3.308-14.678C76.325,1.776,66.395,0.304,63.602,0
		c-2.793,0.304-12.724,1.776-14.896,7.5c-2.534,6.678-3.308,14.678-3.308,14.678s-1.495-0.893-2.571-0.418
		c-1.076,0.475,0.137,8.103,0.344,9.586s2.565,3.383,3.544,2.137c0.187,1.125,0.82,10.547,3.755,12.635
		C50.87,46.401,51.337,46.657,51.853,46.887L51.853,46.887z"/>
</g>
</svg>
